<svg id="Layer_1" data-name="Layer 1" xmlns="http://www.w3.org/2000/svg" viewBox="0 0 1025.44 260.86"><defs><style>.cls-1{fill:#3f3f3f;}</style></defs><title>Artboard 2</title><path class="cls-1" d="M200.47,193.54c-29,0-25-35.64-44.8-44.8,0,0-9.65,4.21-16.33,4.21-6.19,0-10.4-3.71-10.4-8.42,0-5.2,4.7-8.17,10.4-8.17,3.46,0,12.13,1.48,17.32,3,19.06-6.68,38.11-32.17,38.11-68.31,0-33.41-11.88-47.52-24.25-47.52-25,0-42.32,63.11-48.51,107.17-.74,5.94-2.72,18.56-2.72,27.47,0,12.13,2,36.63,2,41.33,0,5.69-8.42,11.14-12.37,11.14-6.19,0-7.42-10.64-7.42-23.26,0-8.42.5-17.57.5-37.62C102,58.16,98.75,7.67,62.37,7.67c-17.08,0-44.55,24.5-44.55,75.73,0,30.94,13.36,52.47,28.46,52.47,14.11,0,18.07-19.55,18.07-32.67,0-21.53-6.44-31.18-9.16-35.89-.74-1.24-1.24-2-1.24-3a2.44,2.44,0,0,1,2.23-2.47c1,0,2,.5,3.71,1.49,6.93,4.46,20,17.57,20,37.62,0,19.8-13.37,41.83-35.14,41.83C21,142.81,0,122,0,84.89,0,27.47,37.37,0,66.08,0c42.82,0,51.73,34.65,53.21,101,0,0,8.66-88.6,56.43-88.6,19.06,0,39.85,19.06,39.85,63.11,0,37.37-29,63.11-48.76,68.56,25.49,11.88,26,33.66,39.1,33.66,13.61,0,26-31.68,26-31.68s1-2.72,3.22-2.72a2.67,2.67,0,0,1,3,2.72,15.14,15.14,0,0,1-.74,3.46S222.75,193.54,200.47,193.54Z"/><path class="cls-1" d="M281.4,166.81c-.25,1.24-5.94,24.75-22.52,24.75-13.36,0-28.21-13.86-28.21-39.85,0-45.79,26-67.32,47.77-67.32,12.38,0,22,8.17,22,20,0,4-6.68,7.42-9.65,7.42a1.69,1.69,0,0,1-1.73-1.73c0-1.73.5-3,.5-6.19,0-7.67-4.7-11.14-11.38-11.14-12.87,0-29.21,18.56-29.21,58.9,0,18.56,5.94,29.7,13.61,29.7,9.16,0,14.85-22.52,17.33-37.37,2-11.63,2.72-27.47,20.29-27.47a2,2,0,0,1,2.23,2c0,2.23-6.19,9.65-6.19,33.66,0,13.12,2.23,23,9.4,23,11.63,0,22-29.2,22-29.2s1-2.72,3.22-2.72a2.67,2.67,0,0,1,3,2.72,15.15,15.15,0,0,1-.74,3.46S320,187.6,302.94,187.6C286.6,187.6,281.9,168.55,281.4,166.81Z"/><path class="cls-1" d="M325.46,143.8c0-43.56,11.38-58.9,22.77-58.9,2,0,3.22,1,3.22,3,0,3.22-8.66,20.54-8.66,60.88,0,25.49,5.94,32.92,12.87,32.92,12.87,0,26-35.64,26-35.64s1-2.72,3.22-2.72a2.67,2.67,0,0,1,3,2.72,15.14,15.14,0,0,1-.74,3.46S371.49,193,352.44,193C340.31,193,325.46,183.89,325.46,143.8ZM355.9,33.16c5.2,0,8.91,4.46,8.91,10.4,0,7.67-4.95,15.84-12.37,15.84-5.69,0-9.16-5-9.16-10.64C343.28,41.08,348,33.16,355.9,33.16Z"/><path class="cls-1" d="M378.92,120.78c0-89.1,16.58-109.89,30.69-109.89,11.14,0,15.84,10.64,15.84,25.49,0,46.28-23.51,104.44-28.21,115.58,3.22,21.53,9.9,27.22,15.84,27.22,14.6,0,30.44-49.5,34.15-71,1.24-7.67.5-15.84.5-23.51.25-12.13,5.94-17.82,12.13-17.82,6.93,0,11.88,4.21,11.88,13.12,0,7.18-5.45,18.07-7.92,22.52,0,14.85,29.45,32.42,29.45,56.43a23,23,0,0,1-.74,5.94c11.63-4.46,16.33-18.81,16.33-18.81s1-2.72,3.22-2.72a2.67,2.67,0,0,1,3,2.72,15.14,15.14,0,0,1-.74,3.46s-5.69,19.06-24.5,22.52c-6.19,11.38-20,18.56-32.92,18.56-11.38,0-23.76-5.45-26.23-14.6-5.94,8.91-13.12,15.1-21.53,15.1C395.75,191.07,378.92,176.22,378.92,120.78ZM396,138.35c6.19-17.32,22.52-65.09,22.52-102.71,0-9.65-1.73-13.86-6.43-13.86-7.67,0-16.58,22.28-16.58,98C395.5,126.72,395.5,132.91,396,138.35Zm42.07,23.76a14,14,0,0,1,4.46-.74c8.66,0,19.06,2.72,30.94,4a48.15,48.15,0,0,0,.49-5.94c0-21.28-16.83-38.11-20.54-47.27C450.69,124,446,144.79,438.07,162.11Zm33.41,9.65c-8.91-1-16.83-2.72-23-2.72-4.45,0-6.68,2.48-6.68,5.45,0,4.7,6.19,9.16,13.36,9.16C463.31,183.64,468.51,178.45,471.48,171.76Z"/><path class="cls-1" d="M527.66,76c0,2.47-6.68,10.15-6.68,49,0,5.69.25,11.14.74,16.58,5.2-15.59,11.14-29.95,17.57-40.59,6.93-11.14,13.36-14.11,19.8-14.11,17.82,0,31.18,20,31.18,59.4,0,33.17-16.58,47-33.16,47a27.48,27.48,0,0,1-21.53-10.15c-1-1.24-1.49-2-1.49-3a3,3,0,0,1,2.72-3c1,0,1.48.25,3,1.73,3.22,3.22,8.42,6.19,13.86,6.19,12.13,0,17.08-11.88,17.08-39.35,0-29-4.46-46-14.85-46-10.15,0-22,29.95-31.43,62.37,3.71,23.26,9.65,44.05,9.65,65.83,0,21.53-11.88,32.92-20.54,32.92-9.65,0-13.61-9.41-13.61-19.3,0-9.41,4.21-35.89,11.38-64.35a371.79,371.79,0,0,1-3.71-50c0-39.6,13.12-54.45,17.08-54.45A3.24,3.24,0,0,1,527.66,76ZM514.54,200.23c-4.46,19.06-6.93,34.65-6.93,40.84,0,8.42,2,12.13,5.2,12.13s4.95-3.46,4.95-9.9C517.76,227.7,516.28,213.84,514.54,200.23Z"/><path class="cls-1" d="M605.87,143.8c0-43.56,11.38-58.9,22.77-58.9,2,0,3.22,1,3.22,3,0,3.22-8.66,20.54-8.66,60.88,0,25.49,5.94,32.92,12.87,32.92,12.87,0,26-35.64,26-35.64s1-2.72,3.22-2.72a2.67,2.67,0,0,1,3,2.72,15.13,15.13,0,0,1-.74,3.46S651.9,193,632.84,193C620.72,193,605.87,183.89,605.87,143.8ZM636.31,33.16c5.2,0,8.91,4.46,8.91,10.4,0,7.67-4.95,15.84-12.37,15.84-5.69,0-9.16-5-9.16-10.64C623.69,41.08,628.39,33.16,636.31,33.16Z"/><path class="cls-1" d="M660.07,146c0-40.84,25-64.1,41.58-64.1,11.63,0,19.8,9.41,19.8,22,0,12.87-4.46,19.8-7.67,19.8-3.71,0-10.15-4-10.15-6.93,0-4.7,6.68-7.42,6.68-19.55a7,7,0,0,0-6.93-7.18c-12.62,0-23.76,22.52-23.76,52,0,24.75,9.4,38.36,25.24,38.36,20.79,0,32.67-34.4,32.67-34.4s1-2.72,3.22-2.72a2.67,2.67,0,0,1,3,2.72,15.15,15.15,0,0,1-.74,3.46s-13.12,41.83-44.05,41.83C678.13,191.32,660.07,175.48,660.07,146Z"/><path class="cls-1" d="M744.21,81.43c0-8.66,5.69-15.35,11.38-15.35,4.7,0,9.41,3.22,9.41,12.13,0,7.18-3.46,16.09-5.2,21.78,0,14.85,30.19,36.13,30.19,60.14,0,20-18.81,30.19-33.41,30.19-20,0-28.71-16.58-28.71-30.44,0-7.18,4-11.88,9.65-13.86,2.23-5.94,9.9-33.91,10.4-44.8C745,91.33,744.21,88.85,744.21,81.43ZM742.73,150c0,9.16-2.72,11.14-2.72,17.57,0,5.69,4.21,14.6,14.35,14.6,11.38,0,16.09-9.16,16.09-22.52s-15.1-43.81-17.33-46C750.65,128.95,743.47,148,742.73,150Z"/><path class="cls-1" d="M995.33,190.33H880.26a30.14,30.14,0,0,1-30.11-30.11V73.72a30.14,30.14,0,0,1,30.11-30.11H995.33a30.14,30.14,0,0,1,30.11,30.11v86.5A30.14,30.14,0,0,1,995.33,190.33ZM880.26,54.61a19.13,19.13,0,0,0-19.11,19.11v86.5a19.13,19.13,0,0,0,19.11,19.11H995.33a19.13,19.13,0,0,0,19.11-19.11V73.72a19.13,19.13,0,0,0-19.11-19.11Z"/><path class="cls-1" d="M977.47,54.42h-76.2V24.67a11.59,11.59,0,0,1,11.57-11.57h53A11.62,11.62,0,0,1,977.47,24.7Zm-65.2-11h54.2V24.7a.61.61,0,0,0-.61-.61h-53a.57.57,0,0,0-.57.57Z"/><path class="cls-1" d="M937.8,155.57A38.6,38.6,0,1,1,976.4,117,38.65,38.65,0,0,1,937.8,155.57Zm0-68.34A29.73,29.73,0,1,0,967.53,117,29.77,29.77,0,0,0,937.8,87.23Z"/></svg>